<svg width="94" height="94" viewBox="0 0 94 94" fill="none" xmlns="http://www.w3.org/2000/svg">
<rect width="94" height="94" fill="#32393E"/>
<path d="M46.8309 19.2535C31.5929 19.2535 19.2534 31.6205 19.2534 46.8585C19.2534 62.0965 31.5929 74.4635 46.8309 74.4635C62.0965 74.4635 74.4635 62.0965 74.4635 46.8585C74.4635 31.6205 62.0965 19.2535 46.8309 19.2535ZM65.9612 35.8165H57.8177C56.9343 32.3659 55.6645 29.0533 54.0082 25.9891C59.0875 27.7282 63.3111 31.2617 65.9612 35.8165ZM46.8585 24.8849C49.1497 28.1975 50.944 31.869 52.131 35.8165H41.5859C42.7729 31.869 44.5673 28.1975 46.8585 24.8849ZM25.4922 52.3795C25.0505 50.6128 24.7745 48.7633 24.7745 46.8585C24.7745 44.9538 25.0505 43.1042 25.4922 41.3375H34.8227C34.6018 43.1594 34.4362 44.9814 34.4362 46.8585C34.4362 48.7357 34.6018 50.5576 34.8227 52.3795H25.4922ZM27.7558 57.9005H35.8993C36.7826 61.3512 38.0525 64.6638 39.7088 67.7279C34.6295 65.9888 30.4059 62.483 27.7558 57.9005ZM35.8993 35.8165H27.7558C30.4059 31.2341 34.6295 27.7282 39.7088 25.9891C38.0525 29.0533 36.7826 32.3659 35.8993 35.8165ZM46.8585 68.8321C44.5673 65.5195 42.7729 61.848 41.5859 57.9005H52.131C50.944 61.848 49.1497 65.5195 46.8585 68.8321ZM53.3181 52.3795H40.3989C40.1505 50.5576 39.9572 48.7357 39.9572 46.8585C39.9572 44.9814 40.1505 43.1318 40.3989 41.3375H53.3181C53.5665 43.1318 53.7597 44.9814 53.7597 46.8585C53.7597 48.7357 53.5665 50.5576 53.3181 52.3795ZM54.0082 67.7279C55.6645 64.6638 56.9343 61.3512 57.8177 57.9005H65.9612C63.3111 62.4554 59.0875 65.9888 54.0082 67.7279ZM58.8943 52.3795C59.1151 50.5576 59.2808 48.7357 59.2808 46.8585C59.2808 44.9814 59.1151 43.1594 58.8943 41.3375H68.2248C68.6665 43.1042 68.9425 44.9538 68.9425 46.8585C68.9425 48.7633 68.6665 50.6128 68.2248 52.3795H58.8943Z" fill="#E5E5E5"/>
</svg>

